# xmcd
#
# Track frame offsets: 
#        150
#        16618
#        26705
#        47655
#        61673
#        86555
#        103073
#        117438
#        131350
#        142978
#        167920
#        179718
#        197715
#
# Disc length: 2739 seconds
#
# Revision: 2
# Processed by: cddbd v1.5.2PL0 Copyright (c) Steve Scherf et al.
# Submitted via: ExactAudioCopyFreeDBPlugin 1.0
#
DISCID=ac0ab10d
DTITLE=Willie Dixon - Baby Please Come Home!:  Memphis Slim and Willie D
DTITLE=ixon in Paris
DYEAR=1996
DGENRE=Blues
TTITLE0=Rock and Rolling the House
TTITLE1=Baby Please Come Home
TTITLE2=How Come You Do Me Like You Do
TTITLE3=The Way She Loves a Man
TTITLE4=New Way to Love
TTITLE5=African Hunch with a Boogie Beat
TTITLE6=Shame Pretty Girls
TTITLE7=Baby, Baby, Baby
TTITLE8=Do De Do
TTITLE9=Cool Blooded
TTITLE10=Just You and I
TTITLE11=Pigalle Love
TTITLE12=All By Myself
EXTD=
EXTT0=
EXTT1=
EXTT2=
EXTT3=
EXTT4=
EXTT5=
EXTT6=
EXTT7=
EXTT8=
EXTT9=
EXTT10=
EXTT11=
EXTT12=
PLAYORDER=
